<svg width="640" height="520" viewBox="0 0 640 520" fill="none" xmlns="http://www.w3.org/2000/svg" role="img" aria-labelledby="title desc">
  <title id="title">GDPR workflow overview</title>
  <desc id="desc">Three connected cards showing record, review, and export.</desc>
  <rect width="640" height="520" rx="48" fill="#F2F7FD"/>
  <rect x="90" y="120" width="180" height="120" rx="16" fill="#FFFFFF" stroke="#D8E0EA" stroke-width="2"/>
  <rect x="120" y="150" width="120" height="14" rx="7" fill="#1C5A99"/>
  <rect x="120" y="178" width="90" height="10" rx="5" fill="#D8E0EA"/>
  <rect x="120" y="198" width="100" height="10" rx="5" fill="#D8E0EA"/>

  <rect x="230" y="260" width="180" height="120" rx="16" fill="#FFFFFF" stroke="#D8E0EA" stroke-width="2"/>
  <rect x="260" y="290" width="120" height="14" rx="7" fill="#3B8B85"/>
  <rect x="260" y="318" width="90" height="10" rx="5" fill="#D8E0EA"/>
  <rect x="260" y="338" width="100" height="10" rx="5" fill="#D8E0EA"/>

  <rect x="370" y="120" width="180" height="120" rx="16" fill="#FFFFFF" stroke="#D8E0EA" stroke-width="2"/>
  <rect x="400" y="150" width="120" height="14" rx="7" fill="#1C5A99"/>
  <rect x="400" y="178" width="90" height="10" rx="5" fill="#D8E0EA"/>
  <rect x="400" y="198" width="100" height="10" rx="5" fill="#D8E0EA"/>

  <path d="M270 180h90" stroke="#1C5A99" stroke-width="4" stroke-linecap="round"/>
  <path d="M310 240v20" stroke="#1C5A99" stroke-width="4" stroke-linecap="round"/>
  <path d="M330 260l-20 18-20-18" stroke="#1C5A99" stroke-width="4" stroke-linecap="round" stroke-linejoin="round"/>
  <path d="M430 240v20" stroke="#3B8B85" stroke-width="4" stroke-linecap="round"/>
  <path d="M450 260l-20 18-20-18" stroke="#3B8B85" stroke-width="4" stroke-linecap="round" stroke-linejoin="round"/>

  <rect x="180" y="400" width="280" height="56" rx="14" fill="#1C5A99"/>
  <path d="M210 424h40" stroke="#FFFFFF" stroke-width="4" stroke-linecap="round"/>
  <path d="M270 424h120" stroke="#FFFFFF" stroke-width="4" stroke-linecap="round" opacity="0.7"/>
  <path d="M410 424h30" stroke="#FFFFFF" stroke-width="4" stroke-linecap="round"/>
</svg>
